<?xml version="1.0" standalone="no"?>
<!DOCTYPE svg PUBLIC "-//W3C//DTD SVG 20010904//EN"
 "http://www.w3.org/TR/2001/REC-SVG-20010904/DTD/svg10.dtd">
<svg version="1.0" xmlns="http://www.w3.org/2000/svg"
 width="2508.000000pt" height="2508.000000pt" viewBox="0 0 2508.000000 2508.000000"
 preserveAspectRatio="xMidYMid meet">
<metadata>
Created by potrace 1.11, written by Peter Selinger 2001-2013
</metadata>
<g transform="translate(0.000000,2508.000000) scale(0.100000,-0.100000)"
fill="#000000" stroke="none">
<path d="M9910 24980 c-124 -4 -279 -12 -345 -20 -94 -10 -160 -10 -305 -1
-129 8 -211 8 -270 1 -47 -5 -276 -12 -510 -15 -403 -5 -539 -12 -708 -36 -41
-6 -191 -12 -335 -14 -144 -3 -293 -9 -332 -14 -105 -16 -281 -28 -570 -41
-369 -17 -447 -28 -524 -74 -37 -23 -91 -71 -138 -124 -173 -192 -245 -261
-310 -294 -35 -18 -65 -40 -68 -48 -3 -8 -41 -44 -86 -80 -44 -35 -87 -76 -94
-90 -7 -14 -82 -94 -166 -178 -206 -206 -226 -224 -285 -266 -28 -19 -71 -61
-97 -93 -25 -32 -72 -80 -104 -108 -33 -27 -77 -71 -99 -97 -21 -26 -51 -52
-65 -58 -15 -7 -36 -30 -49 -55 -23 -44 -23 -50 -25 -477 -2 -283 -6 -442 -13
-460 -29 -71 -80 -1420 -67 -1768 11 -304 11 -412 3 -685 -5 -155 -3 -328 5
-487 16 -328 5 -2018 -14 -2183 -9 -76 -13 -260 -13 -590 0 -432 2 -495 20
-625 21 -141 21 -179 19 -1300 -1 -635 -5 -1252 -8 -1370 -15 -541 -17 -694
-23 -1280 -4 -344 -6 -749 -4 -900 1 -151 0 -896 -1 -1655 -2 -759 -3 -1416
-3 -1460 -1 -44 5 -120 13 -170 10 -73 10 -117 0 -231 -8 -92 -9 -151 -2 -170
5 -16 6 -49 2 -74 -4 -25 -15 -178 -24 -340 -14 -244 -14 -324 -5 -465 7 -93
14 -285 16 -424 3 -192 8 -259 18 -270 10 -13 11 -35 5 -101 -5 -47 -8 -197
-7 -335 1 -137 -2 -353 -6 -480 -7 -214 -6 -239 15 -355 26 -149 27 -248 4
-503 -14 -155 -16 -253 -10 -570 3 -210 7 -402 8 -427 1 -25 -3 -130 -7 -235
-7 -165 -6 -197 9 -247 9 -32 14 -66 11 -75 -3 -10 -12 -85 -21 -166 -12 -124
-13 -170 -2 -280 16 -171 14 -248 -7 -292 -15 -30 -16 -51 -9 -133 4 -53 5
-140 1 -192 -3 -52 -9 -257 -11 -455 -6 -446 5 -521 89 -594 48 -43 63 -48
179 -56 59 -4 121 -16 150 -27 53 -21 56 -21 340 -38 105 -6 231 -15 280 -20
50 -6 160 -15 245 -20 85 -6 182 -16 215 -22 60 -10 179 -16 765 -38 265 -9
312 -13 362 -31 53 -20 59 -20 89 -5 19 9 57 16 93 16 67 0 259 -24 333 -41
78 -18 424 -27 708 -19 72 2 173 -1 225 -7 93 -11 231 -10 1470 11 239 4 473
12 520 17 164 19 336 32 435 34 69 1 122 8 170 23 45 13 113 23 190 27 277 14
307 18 472 61 105 27 271 54 336 54 24 0 111 14 193 31 82 17 169 35 194 39
89 17 176 43 239 73 40 19 90 33 130 37 37 4 116 21 176 39 164 49 446 141
480 156 17 8 75 28 130 45 55 17 123 42 150 55 28 13 88 38 135 55 46 17 89
35 95 39 5 4 26 14 45 21 38 14 260 123 350 171 30 16 67 29 83 29 26 0 120
36 157 60 8 5 29 16 46 24 17 8 34 19 38 24 3 6 41 24 84 42 42 17 96 40 119
51 24 10 47 19 51 19 5 0 19 11 32 25 22 23 128 89 173 107 10 4 33 19 51 33
18 14 37 25 41 25 4 0 22 10 39 23 17 12 42 28 56 34 14 7 76 57 138 111 93
83 121 102 162 112 41 10 68 28 140 91 49 43 93 79 96 79 4 0 21 10 38 23 17
13 38 26 47 29 9 4 56 35 105 71 49 35 105 70 124 77 44 17 139 89 175 132 73
88 176 188 211 204 53 25 150 111 203 181 24 32 83 88 131 125 72 55 101 86
167 180 43 62 85 127 93 143 22 45 115 132 165 155 29 13 59 40 89 79 25 33
46 64 46 70 0 6 15 28 33 48 17 21 38 49 46 63 83 144 89 150 178 216 75 56
131 122 180 214 16 30 50 88 76 128 26 40 47 75 47 78 0 3 15 26 32 52 18 26
47 75 65 110 17 34 41 74 52 89 12 14 21 31 21 37 0 7 13 22 29 34 18 13 48
59 76 114 73 148 108 209 153 268 23 30 42 60 42 66 0 7 6 14 14 17 17 7 103
117 115 149 5 12 33 55 63 93 29 39 59 81 65 95 5 14 30 48 55 75 50 56 121
152 130 175 6 15 43 66 166 226 34 44 65 96 69 115 3 19 28 64 54 100 27 36
53 77 59 90 6 13 24 45 40 71 16 26 34 67 41 90 6 24 20 55 30 69 10 15 19 31
19 37 0 5 8 20 19 33 10 13 28 51 40 84 12 33 40 97 62 142 21 46 39 85 39 89
0 3 17 26 38 52 39 49 82 128 82 154 0 8 11 36 24 64 14 27 36 74 49 104 13
30 40 89 60 130 47 97 97 226 97 250 0 25 53 168 94 255 46 95 81 210 126 410
10 44 34 121 53 171 55 144 125 390 125 444 0 8 7 42 16 75 9 32 16 75 16 95
0 31 10 78 56 275 25 106 61 298 69 360 4 33 13 85 21 115 8 30 14 94 13 143
-1 48 3 93 9 100 10 12 40 113 67 225 8 35 15 99 15 141 0 51 7 97 19 133 24
69 39 166 51 328 5 69 14 148 19 175 5 28 10 109 11 180 0 72 5 159 10 195 6
36 15 99 21 140 6 41 15 149 19 240 8 182 25 307 44 330 32 37 36 82 30 305
-6 194 -4 229 11 274 14 42 17 89 16 259 0 114 1 225 2 247 4 99 -15 980 -24
1065 -5 52 -9 185 -8 295 3 305 -10 633 -26 680 -8 22 -21 112 -30 200 -9 88
-25 198 -35 245 -10 47 -23 159 -29 250 -11 163 -29 307 -51 405 -7 28 -15 93
-20 145 -7 90 -34 259 -65 415 -8 39 -16 106 -19 151 -3 44 -16 123 -29 175
-14 52 -30 132 -37 179 -7 47 -22 117 -35 155 -41 127 -106 427 -107 490 0 38
-72 287 -146 510 -40 120 -84 264 -104 340 -6 22 -28 85 -48 140 -21 55 -49
132 -61 170 -12 39 -35 98 -50 133 -16 34 -29 67 -29 73 0 5 -9 29 -19 53 -11
23 -30 67 -41 97 -12 29 -32 77 -46 107 -13 29 -24 55 -24 57 0 7 -69 154
-100 215 -82 158 -156 314 -190 400 -30 77 -60 138 -91 185 -14 22 -33 54 -41
70 -39 77 -72 132 -111 189 -24 33 -49 74 -57 90 -8 16 -31 47 -50 70 -47 53
-120 159 -120 172 0 6 -10 19 -21 30 -27 24 -247 325 -268 367 -37 72 -97 152
-196 262 -35 39 -94 111 -132 162 -105 142 -175 224 -291 343 -59 60 -139 142
-178 182 -95 97 -281 270 -346 321 -29 23 -89 73 -133 112 -79 70 -185 149
-236 174 -14 7 -48 30 -75 52 -27 21 -107 83 -179 138 -71 54 -139 108 -150
120 -11 13 -56 41 -102 62 -45 22 -98 53 -119 69 -20 17 -40 30 -45 30 -4 0
-36 20 -71 43 -35 24 -76 51 -93 59 -99 50 -142 76 -184 113 -52 45 -68 55
-166 103 -38 19 -77 40 -85 47 -8 6 -31 18 -50 25 -35 13 -117 50 -217 96 -28
13 -55 24 -59 24 -19 0 -242 88 -332 131 -56 27 -104 49 -107 49 -2 0 -29 11
-59 25 -30 14 -59 25 -65 25 -6 0 -39 13 -73 28 -84 38 -265 109 -303 118 -16
4 -35 10 -40 15 -6 4 -44 16 -85 27 -41 11 -107 32 -147 46 -81 30 -197 62
-293 82 -36 7 -81 19 -100 28 -47 19 -345 92 -435 106 -38 5 -101 15 -140 21
-64 9 -252 45 -365 69 -25 5 -67 12 -95 15 -27 4 -87 18 -133 31 -45 14 -87
22 -92 19 -10 -6 -276 29 -345 45 -22 5 -85 10 -140 10 -73 0 -127 7 -200 26
-80 20 -142 27 -305 35 -113 5 -288 17 -390 26 -110 9 -320 17 -515 19 -181 2
-404 5 -495 7 -91 2 -266 0 -390 -3z m-240 -3983 c297 7 554 -2 610 -21 25 -8
261 -25 503 -36 215 -10 237 -13 380 -49 84 -22 208 -46 276 -55 145 -19 188
-29 421 -103 96 -30 207 -64 245 -75 138 -39 492 -158 590 -198 55 -23 127
-50 160 -60 129 -40 192 -70 283 -135 18 -13 54 -31 80 -40 78 -28 265 -125
297 -155 17 -15 53 -38 80 -51 78 -37 191 -105 261 -157 35 -26 75 -55 89 -65
14 -10 42 -40 63 -65 42 -54 144 -147 229 -210 283 -211 321 -243 482 -405 93
-95 191 -199 216 -232 26 -33 72 -85 103 -115 76 -74 193 -213 240 -286 21
-33 64 -86 96 -119 31 -33 69 -82 83 -110 14 -27 54 -90 90 -139 36 -49 80
-121 98 -161 18 -40 57 -117 87 -171 30 -54 76 -146 102 -204 74 -163 131
-281 216 -450 130 -256 198 -454 210 -610 8 -105 36 -205 91 -325 12 -27 28
-82 34 -120 7 -39 28 -104 48 -145 19 -41 40 -100 46 -130 7 -30 23 -91 36
-135 31 -103 52 -214 65 -345 6 -58 23 -150 38 -205 22 -83 26 -124 28 -245 1
-80 9 -192 19 -250 9 -58 20 -163 25 -235 5 -71 14 -155 19 -185 6 -30 15
-111 20 -180 6 -69 19 -163 30 -210 38 -161 42 -206 51 -530 5 -179 14 -399
19 -490 6 -91 7 -244 5 -340 -20 -649 -22 -986 -7 -1075 16 -96 13 -309 -7
-545 -6 -63 -15 -190 -20 -282 -6 -91 -15 -190 -21 -220 -10 -56 -25 -151 -38
-258 -5 -36 -18 -132 -29 -215 -11 -82 -23 -201 -27 -264 -3 -62 -13 -168 -21
-235 -8 -66 -19 -165 -24 -218 -6 -54 -20 -139 -31 -190 -11 -51 -27 -133 -34
-183 -22 -144 -33 -202 -54 -289 -18 -75 -35 -169 -60 -336 -17 -110 -28 -163
-49 -220 -11 -30 -23 -77 -26 -105 -7 -57 -72 -268 -121 -395 -19 -47 -45
-116 -60 -155 -15 -38 -46 -117 -70 -175 -59 -143 -110 -275 -128 -335 -55
-177 -73 -230 -108 -315 -22 -52 -47 -108 -56 -125 -9 -16 -35 -66 -58 -110
-70 -130 -95 -171 -95 -153 0 9 -13 27 -30 41 l-29 25 1 114 c1 101 -1 119
-23 168 -14 30 -36 83 -50 118 -26 69 -120 196 -159 218 -14 7 -43 21 -65 30
-22 10 -57 30 -77 46 -20 16 -67 36 -105 46 -37 10 -78 23 -89 30 -25 13 -197
60 -264 72 -25 4 -127 11 -226 15 -151 6 -190 5 -230 -8 -27 -9 -74 -19 -104
-22 -30 -4 -91 -15 -135 -25 -44 -10 -96 -21 -116 -23 -19 -3 -55 -14 -80 -25
-24 -11 -62 -26 -84 -32 -22 -7 -44 -16 -50 -20 -5 -3 -39 -14 -75 -24 -36
-10 -121 -35 -190 -57 -156 -49 -281 -68 -521 -78 -386 -18 -709 20 -1064 123
-157 45 -171 51 -177 73 -3 12 -21 24 -48 32 -75 22 -253 119 -345 188 -640
479 -1003 1554 -880 2603 22 181 41 269 64 294 12 12 28 60 41 116 12 52 28
122 36 156 8 33 14 66 14 74 0 8 8 32 19 54 10 23 29 70 41 106 12 36 30 76
39 90 23 33 48 98 55 137 6 35 16 56 89 197 117 223 299 446 443 542 216 144
550 239 959 274 128 10 208 23 285 45 30 9 108 29 174 45 211 53 280 77 311
110 22 23 57 39 145 66 63 20 120 40 125 44 6 4 51 22 100 40 127 46 205 84
259 125 25 19 52 35 59 35 42 0 222 118 233 152 3 11 26 46 49 77 24 31 46 67
50 80 4 12 18 39 31 58 13 20 31 60 41 89 15 49 16 73 4 277 -11 188 -16 232
-37 290 -13 38 -24 84 -24 104 0 20 -5 54 -11 77 -29 108 -54 186 -77 236 -25
55 -127 194 -176 239 -14 13 -40 48 -58 78 -26 42 -40 55 -68 63 -510 133
-890 187 -1406 197 -591 11 -1135 -55 -1654 -203 -254 -72 -737 -253 -818
-307 -68 -45 -87 -54 -118 -61 -48 -11 -325 -168 -494 -281 -199 -133 -426
-313 -478 -379 -12 -16 -67 -77 -121 -135 -55 -58 -132 -149 -172 -201 -40
-52 -88 -113 -108 -136 -20 -23 -55 -64 -79 -92 -45 -54 -62 -64 -62 -35 0 9
-5 32 -12 50 -10 28 -9 42 7 88 16 49 17 73 10 242 -14 351 -20 768 -12 893
13 203 11 1348 -3 1585 -13 221 -10 444 10 835 15 299 -2 831 -30 924 -7 22
-9 69 -7 110 32 459 50 1378 52 2646 1 866 4 1090 14 1111 7 15 30 36 51 48
21 12 40 26 42 32 7 21 246 27 793 22 303 -4 561 -6 575 -6z m3180 -7362 c36
-8 81 -14 101 -15 19 0 69 -9 110 -20 41 -12 106 -25 144 -30 62 -8 81 -15
155 -66 125 -84 166 -119 233 -203 74 -94 129 -202 125 -251 -1 -19 4 -55 11
-80 20 -67 6 -238 -24 -313 -50 -126 -169 -279 -243 -314 -20 -9 -67 -38 -103
-64 -37 -26 -80 -54 -95 -62 -48 -25 -177 -64 -255 -78 -41 -7 -99 -24 -129
-39 -210 -103 -574 -201 -905 -245 -465 -60 -768 -161 -1054 -348 -562 -370
-996 -1043 -1200 -1862 -138 -555 -167 -1103 -90 -1695 12 -85 23 -195 25
-245 4 -65 13 -115 35 -179 17 -48 39 -132 49 -187 95 -495 400 -909 885
-1198 387 -231 849 -343 1345 -328 493 16 938 86 1222 193 68 25 131 47 140
49 9 2 50 13 90 24 223 62 593 121 763 121 229 0 420 -35 526 -95 95 -53 100
-56 156 -103 96 -79 143 -172 183 -362 26 -123 22 -195 -16 -328 -101 -347
-420 -658 -922 -899 -477 -229 -978 -368 -1616 -448 -423 -53 -770 -55 -1166
-9 -1189 138 -2224 645 -2847 1394 -76 91 -252 336 -295 411 -37 62 -123 278
-196 490 -371 1070 -467 2284 -272 3414 68 391 155 728 278 1080 193 549 217
606 354 834 121 202 178 287 250 376 141 171 195 242 228 300 71 121 308 325
455 392 22 10 83 48 135 84 194 135 489 295 735 399 338 143 515 210 555 210
14 0 30 4 35 8 18 15 109 41 214 62 57 12 111 25 120 29 22 11 228 60 277 65
103 12 310 47 409 70 237 55 418 73 770 74 183 1 267 -3 315 -13z m-8353
-6917 c-2 -29 -3 -8 -3 47 0 55 1 79 3 53 2 -26 2 -71 0 -100z m3770 -1408
c310 -440 796 -837 1358 -1112 l80 -39 -95 5 c-194 11 -340 17 -525 21 -105 2
-240 9 -300 16 -67 7 -161 9 -241 5 -135 -7 -286 7 -293 26 -8 24 -44 50 -62
45 -21 -6 -22 1 -19 169 1 50 -8 126 -21 193 -22 108 -22 116 -9 312 8 123 10
257 6 348 -3 82 -3 156 0 166 5 13 18 0 55 -57 27 -40 56 -84 66 -98z m9338
-1299 c-3 -6 -11 -11 -17 -11 -6 0 -6 6 2 15 14 17 26 13 15 -4z"/>
</g>
</svg>
